<svg width="589" height="783" viewBox="0 0 589 783" fill="none" xmlns="http://www.w3.org/2000/svg">
<path d="M178.5 285L145.5 335.5L220 340.5L280.5 286.313L178.5 285Z" fill="url(#paint0_linear_2_31)"/>
<path d="M85 423L41 456L141.5 525.468L173 517.57L289.5 488.361L145.5 335.5L85 423Z" fill="url(#paint1_linear_2_31)"/>
<path d="M85 423L41 456L141.5 525.468L173 517.57L289.5 488.361L145.5 335.5L85 423Z" fill="#CBC3BE"/>
<path d="M66.5 516.5L97.5 536.5L141.5 525.468L41 456L66.5 516.5Z" fill="#CBC3BE"/>
<path d="M6 407L41 456L85 423L6 407Z" fill="#1E1E1E"/>
<path d="M120.5 212L74.5 262V327L6 407L85 423L145.5 335.5L178.5 285L280.5 286.313L417.5 291.5L289.5 154H245L169.5 156.5L120.5 212Z" fill="#89807C"/>
<path d="M220 340.5L145.5 335.5L289.5 488.361L306 484.224L417.5 291.5L280.5 286.313L220 340.5Z" fill="#89807C"/>
<path d="M306 484.224L289.5 488.361L173 517.57V664.5L235.709 579.5L306 484.224Z" fill="#CBC3BE"/>
<path d="M120.5 29.5V212L169.5 156.5L120.5 29.5Z" fill="url(#paint2_linear_2_31)"/>
<path d="M419 10L289.5 154L417.5 291.5L419 10Z" fill="url(#paint3_linear_2_31)"/>
<path d="M245 154L120.5 29.5L169.5 156.5L245 154Z" fill="#393536"/>
<path d="M458.5 239L419 10L417.5 291.5L458.5 239Z" fill="#393536"/>
<path d="M417.5 291.5L306 484.224L454.5 446.991L502 435.081L417.5 291.5Z" fill="#89807C"/>
<path d="M306 484.224L235.709 579.5V741C235.709 741 279.816 685.943 310 646.5C365.259 571.125 454.5 446.991 454.5 446.991L306 484.224Z" fill="#89807C"/>
<path d="M583 411.5L458.5 239L417.5 291.5L502 435.081L583 411.5Z" fill="#89847C"/>
<path d="M583 411.5L502 435.081L454.5 446.991C454.5 446.991 365.259 571.125 310 646.5C310 697.073 313 769.5 313 769.5L583 411.5Z" fill="#89847C"/>
<path d="M120.5 29.5V212M120.5 29.5L245 154M120.5 29.5L169.5 156.5M120.5 212L74.5 262V327M120.5 212L169.5 156.5M74.5 327L6 407M74.5 327L145.5 335.5M6 407L41 456M6 407L85 423M583 411.5L458.5 239M583 411.5L502 435.081M583 411.5L313 769.5C313 769.5 310 697.073 310 646.5M458.5 239L419 10M458.5 239L417.5 291.5M419 10L289.5 154M419 10L417.5 291.5M289.5 154H245M289.5 154L417.5 291.5M245 154L169.5 156.5M41 456L66.5 516.5L97.5 536.5L141.5 525.468M41 456L85 423M41 456L141.5 525.468M85 423L145.5 335.5M145.5 335.5L178.5 285L280.5 286.313M145.5 335.5L220 340.5L280.5 286.313M145.5 335.5L289.5 488.361M417.5 291.5L280.5 286.313M417.5 291.5L306 484.224M417.5 291.5L502 435.081M141.5 525.468L173 517.57M289.5 488.361L306 484.224M289.5 488.361L173 517.57M306 484.224L235.709 579.5M306 484.224L454.5 446.991M502 435.081L454.5 446.991M173 517.57V664.5L235.709 579.5M235.709 579.5V741C235.709 741 279.816 685.943 310 646.5M454.5 446.991C454.5 446.991 365.259 571.125 310 646.5" stroke="black" stroke-width="9"/>
<path d="M211.945 352.474L172.499 350M200 359.874L182.249 358.761" stroke="black" stroke-width="3"/>
<defs>
<linearGradient id="paint0_linear_2_31" x1="244.5" y1="237" x2="196" y2="343" gradientUnits="userSpaceOnUse">
<stop stop-color="#7CB45D"/>
<stop offset="1" stop-color="#317A78"/>
</linearGradient>
<linearGradient id="paint1_linear_2_31" x1="232.34" y1="236.107" x2="182.512" y2="339.865" gradientUnits="userSpaceOnUse">
<stop stop-color="#7CB45D"/>
<stop offset="1" stop-color="#317A78"/>
</linearGradient>
<linearGradient id="paint2_linear_2_31" x1="244.5" y1="237" x2="196" y2="343" gradientUnits="userSpaceOnUse">
<stop stop-color="#7CB45D"/>
<stop offset="1" stop-color="#317A78"/>
</linearGradient>
<linearGradient id="paint3_linear_2_31" x1="244.5" y1="237" x2="196" y2="343" gradientUnits="userSpaceOnUse">
<stop stop-color="#7CB45D"/>
<stop offset="1" stop-color="#317A78"/>
</linearGradient>
</defs>
</svg>
